<svg viewBox="0 0 100 100" xmlns="http://www.w3.org/2000/svg">
  <!-- Background -->
  <circle cx="50" cy="50" r="48" fill="white" stroke="black" stroke-width="2"/>
  
  <!-- Central Pentagon (Black) -->
  <polygon points="50,35 64.2,45.3 58.8,61.8 41.2,61.8 35.8,45.3" fill="black"/>
  
  <!-- Connecting Lines/Shapes -->
  <g stroke="black" stroke-width="3" fill="none">
    <line x1="35.8" y1="45.3" x2="20" y2="30" />
    <line x1="64.2" y1="45.3" x2="80" y2="30" />
    <line x1="58.8" y1="61.8" x2="70" y2="85" />
    <line x1="41.2" y1="61.8" x2="30" y2="85" />
    <line x1="50" y1="35" x2="50" y2="10" />
  </g>
  
  <!-- Outer Shapes (Simplified for Icon) -->
  <path d="M 50 10 Q 65 10 75 20 L 80 30" stroke="black" stroke-width="2" fill="none"/>
  <path d="M 80 30 Q 85 50 70 85" stroke="black" stroke-width="2" fill="none"/>
  <path d="M 70 85 Q 50 90 30 85" stroke="black" stroke-width="2" fill="none"/>
  <path d="M 30 85 Q 15 50 20 30" stroke="black" stroke-width="2" fill="none"/>
  <path d="M 20 30 Q 35 10 50 10" stroke="black" stroke-width="2" fill="none"/>
  
  <!-- 3D Shading Overlay -->
  <defs>
    <radialGradient id="highlight" cx="30%" cy="30%" r="50%">
      <stop offset="0%" stop-color="white" stop-opacity="0.6"/>
      <stop offset="100%" stop-color="transparent" stop-opacity="0"/>
    </radialGradient>
    <radialGradient id="shadow" cx="60%" cy="60%" r="60%">
      <stop offset="0%" stop-color="transparent" stop-opacity="0"/>
      <stop offset="100%" stop-color="black" stop-opacity="0.4"/>
    </radialGradient>
  </defs>
  
  <circle cx="50" cy="50" r="48" fill="url(#highlight)"/>
  <circle cx="50" cy="50" r="48" fill="url(#shadow)"/>
</svg>
